<?xml version="1.0" encoding="UTF-8" standalone="no"?>
<!-- Created with Inkscape (http://www.inkscape.org/) -->

<svg
   width="216.07343mm"
   height="235.71167mm"
   viewBox="0 0 216.07343 235.71167"
   version="1.1"
   id="svg8"
   xml:space="preserve"
   xmlns:xlink="http://www.w3.org/1999/xlink"
   xmlns="http://www.w3.org/2000/svg"
   xmlns:svg="http://www.w3.org/2000/svg"
   xmlns:rdf="http://www.w3.org/1999/02/22-rdf-syntax-ns#"
   xmlns:cc="http://creativecommons.org/ns#"
   xmlns:dc="http://purl.org/dc/elements/1.1/"><defs
     id="defs2"><linearGradient
       id="swatch4"><stop
         style="stop-color:#00bf98;stop-opacity:1;"
         offset="0"
         id="stop4" /></linearGradient><linearGradient
       id="swatch3"><stop
         style="stop-color:#000000;stop-opacity:1;"
         offset="0"
         id="stop3" /></linearGradient><linearGradient
       id="swatch2"><stop
         style="stop-color:#0a967c;stop-opacity:1;"
         offset="0"
         id="stop2" /></linearGradient><linearGradient
       id="linearGradient8"><stop
         style="stop-color:#000000;stop-opacity:1;"
         offset="0"
         id="stop9" /><stop
         style="stop-color:#000000;stop-opacity:0;"
         offset="1"
         id="stop10" /></linearGradient><linearGradient
       id="swatch8"><stop
         style="stop-color:#000000;stop-opacity:1;"
         offset="0"
         id="stop8" /></linearGradient><linearGradient
       id="swatch1"><stop
         style="stop-color:#006e98;stop-opacity:1;"
         offset="0"
         id="stop1" /></linearGradient><linearGradient
       xlink:href="#swatch2"
       id="linearGradient2"
       x1="15.251167"
       y1="138.77922"
       x2="201.77168"
       y2="138.77922"
       gradientUnits="userSpaceOnUse" /><linearGradient
       xlink:href="#swatch2"
       id="linearGradient3"
       x1="71.939789"
       y1="241.64465"
       x2="225.08012"
       y2="241.64465"
       gradientUnits="userSpaceOnUse"
       gradientTransform="translate(-0.26696053,-4.5383291)" /></defs><metadata
     id="metadata5"><rdf:RDF><cc:Work
         rdf:about=""><dc:format>image/svg+xml</dc:format><dc:type
           rdf:resource="http://purl.org/dc/dcmitype/StillImage" /><dc:title /></cc:Work></rdf:RDF></metadata><g
     id="layer1"
     style="display:inline;opacity:1"
     transform="translate(-11.739738,-41.389601)"><path
       id="path3733"
       style="mix-blend-mode:normal;fill:url(#linearGradient2);fill-opacity:1;stroke-width:0.264583"
       transform="translate(-3.5114288)"
       d="M 201.52122,202.92111 143.64106,236.15667 108.4594,236.15584 73.27678,236.1556 15.251167,202.48728 15.501636,94.944218 108.7619,41.389597 201.77169,95.378042 Z" /></g><g
     id="layer2"
     transform="translate(-11.739738,-41.389601)"><path
       style="fill:#ffffff;fill-opacity:1;stroke:none;stroke-width:0.264583px;stroke-linecap:butt;stroke-linejoin:miter;stroke-opacity:1"
       d="m 93.135183,236.15786 -8.769048,-5.7e-4 V 197.9662 l 4.913691,-0.37798 -0.755952,-52.16071 2.267857,-17.00893 1.889879,1.5119 v -17.3869 l -1.133927,-0.756 V 89.486934 l 1.889882,5.291667 5.622395,-4.535715 0.94494,-6.614584 1.55915,5.811385 3.62304,-0.04725 0.0117,146.763463 z"
       id="path4649" /></g><g
     id="g4661"
     transform="translate(-11.739738,-41.389601)"><path
       id="path4659"
       d="m 115.80658,236.1562 9.82736,-3e-5 v -38.19625 l -4.91369,-0.37798 0.75595,-52.16071 -2.26786,-17.00893 -1.88987,1.5119 v -17.3869 l 1.13392,-0.75596 v -22.3006 l -1.88988,5.291667 -5.6224,-4.535715 -0.94494,-6.614584 -1.55915,5.811385 -3.62304,-0.04725 0.003,146.770717 z"
       style="fill:#ffffff;fill-opacity:1;stroke:none;stroke-width:0.264583px;stroke-linecap:butt;stroke-linejoin:miter;stroke-opacity:1" /></g><g
     id="g4699"
     style="display:inline"
     transform="translate(-11.739738,-41.389601)"><path
       style="display:inline;fill:#ffffff;fill-opacity:1;stroke:none;stroke-width:0;stroke-dasharray:none;stroke-opacity:1;paint-order:stroke fill markers"
       d="m 84.235141,238.39991 75.807699,-31.5055 54.63295,0.11468 -27.29299,9.72274 4.84892,11.97105 32.15415,0.22463 -8.95538,18.62359 -75.49374,19.97467 -13.8843,1.81752 -2.86526,-19.22651 -49.588443,20.69922 z"
       id="path3" /><path
       style="display:inline;fill:url(#linearGradient3);stroke:#ffffff;stroke-width:6;stroke-dasharray:none;stroke-opacity:1;paint-order:stroke fill markers"
       d="m 77.234979,273.59167 c -6.701835,-1.31768 -7.477604,-13.5885 -1.617518,-25.58531 4.280634,-8.76341 9.957789,-13.59785 14.107191,-12.01319 1.177364,0.44962 2.162901,1.53539 2.491218,2.74458 0.597921,2.20206 -0.23759,6.48847 -1.450711,7.44272 -1.010535,0.79486 -2.635515,0.36407 -2.635515,-0.69873 0,-0.19165 0.251112,-1.22385 0.55801,-2.29379 0.611247,-2.13089 0.577811,-3.11096 -0.127884,-3.74963 -1.185073,-1.0725 -4.284016,1.2578 -6.806957,5.11859 -6.116996,9.36065 -8.235519,22.34487 -4.105039,25.15911 0.621074,0.42317 0.89901,0.4792 1.805271,0.36392 2.686065,-0.34164 6.842324,-4.17833 10.250108,-9.46195 0.542041,-0.84041 1.140695,-1.58756 1.330323,-1.66034 0.646771,-0.24819 1.142072,-0.13282 1.475918,0.34386 0.738709,1.05466 0.345463,2.2033 -1.919726,5.60749 -3.155396,4.74204 -6.677994,7.70473 -10.186228,8.56724 -1.537174,0.37793 -1.787033,0.38702 -3.168439,0.11533 z m 48.142791,-0.45785 c -1.1717,-0.39058 -1.18298,-0.74747 -0.19928,-6.31516 0.49569,-2.80561 1.5648,-8.42365 2.37583,-12.48452 0.81103,-4.06084 1.43613,-7.42185 1.38907,-7.46887 -0.047,-0.047 -0.57383,0.0315 -1.17073,0.17483 -1.25227,0.30042 -1.56809,0.22347 -2.04013,-0.4969 -0.31362,-0.47871 -0.31312,-0.59455 0.006,-1.39271 0.33132,-0.82806 0.43374,-0.89853 2.09708,-1.44303 0.96181,-0.31488 1.86038,-0.68152 1.99678,-0.81475 0.13638,-0.13325 0.60787,-1.73658 1.04764,-3.56298 2.26553,-9.40832 4.59659,-13.27372 8.00957,-13.28156 0.8534,-9.3e-4 2.2431,0.7968 2.69241,1.5475 0.30261,0.50569 0.42062,1.09849 0.42376,2.1291 0.003,1.22 -0.0712,1.50895 -0.51501,1.98167 -0.55389,0.59023 -1.46557,0.7323 -1.9015,0.29636 -0.14139,-0.14139 -0.2571,-0.65235 -0.2571,-1.13548 0,-2.09025 -1.56631,-1.72177 -2.73193,0.64273 -0.95387,1.93495 -3.24187,10.05831 -2.92283,10.37732 0.054,0.0541 0.97614,-0.11606 2.04938,-0.37785 1.78454,-0.43523 1.99463,-0.44759 2.45703,-0.14463 0.68504,0.44889 0.69049,1.57277 0.0123,2.2114 -0.48866,0.4591 -0.92311,0.63 -3.92845,1.54559 l -1.5312,0.46647 -1.09102,5.60087 c -1.63477,8.39213 -2.91826,15.12833 -3.46978,18.21073 -0.30127,1.68356 -0.64175,2.94404 -0.87551,3.24123 -0.44758,0.56899 -1.15089,0.74937 -1.92104,0.49264 z m 16.20413,-6.85467 c -0.29216,-0.12252 -0.94991,-0.86257 -0.95724,-1.67528 -0.007,-0.88296 0.4292,-1.59117 1.23805,-2.00576 0.56721,-0.2907 5.51574,-1.85518 11.60941,-3.67032 16.67327,-4.96653 38.54789,-9.63145 54.09497,-11.5362 6.80625,-0.83383 6.49348,-0.81858 6.97176,-0.34029 0.51797,0.51799 0.52914,0.88466 0.0444,1.45908 -0.31807,0.37698 -1.27277,0.5907 -6.29719,1.40955 -19.24537,3.13652 -40.0355,8.33399 -62.24209,15.56025 -3.45548,1.12447 -3.79012,1.1844 -4.46219,0.79897 z m -45.239061,-2.85076 c -2.14852,-1.28786 -2.732138,-5.23604 -1.3712,-9.27592 0.560775,-1.66459 1.772253,-3.77025 2.86763,-4.9842 0.492313,-0.54562 1.131778,-1.39236 1.421016,-1.88164 0.638844,-1.08058 1.807975,-1.92636 3.049015,-2.20566 2.68561,-0.60443 4.75374,1.1337 5.06761,4.25894 0.17813,1.77353 0.30025,1.79369 2.35637,0.38877 l 1.46925,-1.0039 0.47187,-2.05421 c 0.56385,-2.45461 0.70239,-2.74083 1.58828,-3.28101 1.80245,-1.09902 2.75836,0.13409 2.05832,2.65517 -0.12582,0.45293 -0.18151,0.87065 -0.12388,0.92828 0.0575,0.0576 0.45981,-0.45755 0.89377,-1.14485 0.99527,-1.57631 2.75676,-3.40925 3.79088,-3.94459 1.39843,-0.72392 3.03264,-0.38633 3.54203,0.73169 0.65217,1.4313 0.49546,2.7795 -0.97518,8.39041 -1.09264,4.16871 -1.02191,5.01357 0.36004,4.29894 1.30988,-0.67737 2.35383,0.41528 1.66657,1.7443 -0.7479,1.44627 -3.18072,2.38027 -4.633,1.77868 -0.35442,-0.14678 -0.86097,-0.61706 -1.12568,-1.04508 -0.85176,-1.37715 -0.56702,-3.91931 1.13553,-10.13852 0.28032,-1.02409 0.43879,-1.93293 0.35208,-2.01961 -0.0865,-0.0865 -0.45629,0.12452 -0.82134,0.46945 -1.71262,1.61815 -4.51845,6.66712 -6.42036,11.55322 -0.65653,1.68664 -1.29384,2.97518 -1.61582,3.2671 -0.61957,0.56165 -1.49853,0.62172 -2.17408,0.14854 -0.66437,-0.46534 -0.62417,-1.68152 0.1691,-5.1164 0.35211,-1.5246 0.64017,-2.89441 0.64017,-3.04405 0,-0.1692 -0.42529,-0.0179 -1.12473,0.39968 -0.6186,0.36948 -1.30048,0.77565 -1.51522,0.90255 -0.21477,0.127 -0.6989,1.04984 -1.07582,2.05092 -1.79533,4.76776 -4.79043,7.70736 -7.853035,7.70754 -0.875266,6e-5 -1.407701,-0.13743 -2.070219,-0.53454 z m 4.412641,-3.90776 c 0.86768,-0.90351 2.37369,-3.33932 2.36907,-3.83171 -9.5e-4,-0.10128 -0.56179,-0.19676 -1.24628,-0.21204 -1.25382,-0.0281 -2.296776,-0.40994 -2.810789,-1.02928 -0.445362,-0.53663 -0.577032,-0.41014 -0.947558,0.91044 -0.454702,1.6205 -0.463064,4.06691 -0.0161,4.70507 0.58173,0.83053 1.516773,0.63922 2.651647,-0.54248 z m 3.41495,-7.2382 c 0.18385,-0.18386 0.0642,-2.56575 -0.15768,-3.13831 -0.12285,-0.31688 -0.42855,-0.68598 -0.67947,-0.8203 -0.37951,-0.2031 -0.59574,-0.15181 -1.28611,0.30504 -2.127701,1.40804 -1.269,4.23144 1.17815,3.87378 0.46692,-0.0682 0.89222,-0.16733 0.94511,-0.22021 z m 36.53091,1.52288 c -0.902,-0.39262 -1.73052,-1.32635 -2.1494,-2.42231 -0.5166,-1.35159 -0.30009,-4.79477 0.43281,-6.88391 1.67479,-4.77381 5.12973,-8.27058 8.15622,-8.2549 1.3688,0.006 2.31961,0.50463 2.76733,1.44813 0.47891,1.00926 0.43241,1.94846 -0.16891,3.41074 -1.05654,2.56925 -3.18083,4.63215 -6.39,6.20522 -1.46741,0.7193 -1.66025,0.8818 -1.65957,1.39866 8.1e-4,0.83622 0.74319,1.94086 1.41745,2.11009 1.40212,0.3519 3.70518,-1.11593 7.06072,-4.50017 l 2.58743,-2.60956 1.00474,-4.06336 c 1.03462,-4.1841 1.38203,-4.97711 2.31692,-5.28877 1.3526,-0.45086 2.17048,0.62837 1.72918,2.28176 -0.279,1.04524 -0.16352,1.24571 0.3096,0.5375 0.19205,-0.28749 0.94646,-1.11568 1.67648,-1.84047 1.03234,-1.02492 1.59655,-1.40265 2.53883,-1.69967 1.12786,-0.35555 1.26195,-0.35784 1.94234,-0.0334 0.40194,0.19166 0.79642,0.55519 0.87656,0.80781 0.21313,0.67142 -0.0559,1.80698 -0.5293,2.23553 -0.37151,0.33619 -0.70869,0.39071 -2.02288,0.32699 -1.00483,-0.0488 -3.50658,2.83412 -4.89335,5.63873 -0.96977,1.96127 -1.64471,3.72013 -2.50869,6.53749 -0.63127,2.05845 -0.7284,2.23313 -1.39706,2.51251 -0.55598,0.23232 -0.87161,0.2469 -1.39488,0.0644 -0.80403,-0.2803 -1.09727,-0.92537 -0.92856,-2.04274 l 0.12361,-0.81845 -0.93798,0.8864 c -2.51556,2.37722 -3.57235,3.14435 -5.32468,3.86534 -1.36816,0.56291 -3.57107,0.65335 -4.63491,0.19031 z m 3.14169,-9.72412 c 1.24631,-0.79101 2.89355,-2.63877 3.21164,-3.6026 0.20856,-0.63186 0.19705,-0.81969 -0.0664,-1.08304 -0.282,-0.282 -0.39191,-0.28071 -0.95615,0.0123 -1.10546,0.57165 -2.5308,2.46425 -3.37077,4.47565 -0.42048,1.00701 -0.16063,1.05075 1.18159,0.1989 z m 23.67542,4.43432 c -1.12605,-0.26395 -2.16178,-1.08653 -2.74729,-2.18192 -0.41097,-0.76883 -0.47935,-1.22182 -0.47525,-3.14759 0.004,-2.61044 0.30139,-3.69115 1.74451,-6.37334 1.88391,-3.50143 4.57342,-5.62484 7.1222,-5.62317 1.4897,8.1e-4 2.48804,0.55937 2.9418,1.64532 1.04165,2.49304 -2.09353,6.86645 -6.39673,8.92306 -1.85853,0.88824 -1.86757,0.89645 -1.87461,1.70566 -0.004,0.58395 0.14116,0.96135 0.51881,1.339 1.33146,1.33146 3.89197,0.13061 7.80482,-3.66042 l 2.72299,-2.63819 1.05913,-3.92541 c 1.20443,-4.46393 1.58106,-5.10372 3.0044,-5.10372 1.30875,0 1.66735,0.84296 1.07406,2.52454 -0.16775,0.47552 -0.25471,0.91483 -0.19323,0.97631 0.0615,0.0615 0.67398,-0.62873 1.36108,-1.53385 2.46524,-3.24738 4.83922,-4.29988 6.45083,-2.85992 0.56919,0.50858 0.69477,0.79639 0.77628,1.77926 0.0962,1.16007 0.003,1.58276 -1.67442,7.6655 -0.45024,1.63185 -0.48601,3.03324 -0.0809,3.16599 0.38519,0.12622 1.9284,-1.12819 3.05844,-2.48604 0.9232,-1.10936 1.09235,-1.45928 1.2221,-2.52816 0.31183,-2.56904 1.85091,-5.77003 3.7937,-7.89023 2.82007,-3.07763 6.04121,-3.8991 7.92535,-2.02116 0.67064,0.66845 0.8034,0.94762 0.8034,1.68979 0,1.18317 -0.43431,2.16149 -1.27273,2.86697 -0.75039,0.63141 -1.53441,0.74753 -1.91888,0.28424 -0.1392,-0.16774 -0.21982,-0.83762 -0.18692,-1.55323 0.0565,-1.22851 0.0449,-1.25688 -0.47775,-1.19821 -1.3034,0.14629 -3.29408,2.484 -4.32726,5.08161 -1.22676,3.08431 -0.8619,5.87422 0.79379,6.0697 1.10656,0.13064 2.01199,-0.18757 3.64912,-1.28258 1.96414,-1.3137 5.24029,-4.49734 5.24029,-5.09231 0,-0.99515 1.14306,-3.92752 2.10503,-5.40006 1.84335,-2.82185 4.15395,-4.47666 6.48621,-4.64539 3.08977,-0.22347 4.35824,1.97296 2.88199,4.99029 -1.1105,2.26982 -4.18439,4.82678 -7.0278,5.84598 -0.90875,0.32573 -1.01754,0.43388 -1.01683,1.01075 8.1e-4,0.88848 0.69734,1.95223 1.39187,2.12654 1.61985,0.40658 4.51627,-1.24904 7.45727,-4.26263 1.53068,-1.56845 2.12093,-2.03826 2.56074,-2.03826 0.62776,0 1.0151,0.51195 1.0151,1.34171 0,0.78785 -1.13829,2.33162 -3.03444,4.11538 -5.02283,4.72512 -10.24774,5.34348 -12.52049,1.4818 -0.21565,-0.36641 -0.40399,-0.24448 -2.09569,1.35686 -4.11783,3.89788 -8.7841,4.86521 -11.04536,2.28977 l -0.65083,-0.74124 -1.58556,1.58557 c -1.83217,1.83216 -2.99084,2.40122 -4.53479,2.22717 -1.82519,-0.2057 -2.62158,-1.62177 -2.34812,-4.17523 0.0797,-0.74557 0.55984,-2.94412 1.06671,-4.88568 0.50687,-1.94155 0.85223,-3.57296 0.7675,-3.62536 -0.20083,-0.12416 -1.64635,1.39228 -2.75068,2.88553 -1.10096,1.48866 -3.34717,5.80546 -4.65797,8.95176 -1.10341,2.64851 -1.65396,3.20893 -2.88644,2.93824 -0.9128,-0.20051 -1.13888,-0.60362 -1.02184,-1.82195 0.10294,-1.07027 -0.0741,-1.36949 -0.43147,-0.73054 -0.38126,0.68129 -3.11981,2.86027 -4.50992,3.58844 -1.15441,0.60471 -3.51863,1.29371 -4.09088,1.19218 -0.0667,-0.0129 -0.50077,-0.11049 -0.96451,-0.21913 z m 2.35729,-9.74038 c 2.26774,-1.50521 3.97002,-4.04446 3.0801,-4.59445 -0.47252,-0.29205 -1.81475,0.56149 -2.63047,1.67274 -1.18143,1.60942 -2.15825,3.69054 -1.73226,3.69054 0.0685,0 0.6456,-0.34598 1.28263,-0.76883 z m 44.49768,-8.14637 c 1.88837,-1.16681 3.58419,-3.13 3.58419,-4.14937 0,-1.71464 -2.88468,0.43613 -4.27259,3.18556 -0.36018,0.71351 -0.65486,1.34824 -0.65486,1.41052 0,0.24649 0.4793,0.0873 1.34326,-0.44671 z m -122.244668,2.34527 c -0.07862,-0.0785 -0.142831,-0.45697 -0.142831,-0.84088 0,-1.10772 1.978626,-8.59311 3.463362,-13.10244 0.88998,-2.70293 1.266092,-4.12406 1.091467,-4.12406 -0.501419,0 -2.949772,2.64991 -3.167061,3.42778 -0.179344,0.64207 -0.301121,0.74985 -0.847026,0.74985 -0.495135,0 -0.68173,-0.1257 -0.835389,-0.56255 -0.47389,-1.34755 1.979171,-4.37734 4.687156,-5.78914 2.584643,-1.3475 4.82878,-1.54972 6.52043,-0.58755 1.281,0.7286 1.61995,1.37369 1.61995,3.08296 0,1.83573 -0.51991,3.01314 -2.05037,4.64328 -0.58084,0.61867 -1.05607,1.13719 -1.05607,1.15225 0,0.0151 0.39062,0.15636 0.86809,0.31393 1.66644,0.54995 2.74819,2.49167 2.45974,4.41516 -0.50876,3.39272 -4.757671,7.24414 -8.002349,7.25367 -1.014243,0.002 -1.185825,-0.0587 -1.345392,-0.48364 -0.238944,-0.63634 0.426506,-1.33394 1.272455,-1.33394 1.001496,0 3.144865,-1.21513 4.185996,-2.37312 2.25412,-2.50711 2.44944,-4.68448 0.51016,-5.68733 -1.23036,-0.63623 -4.961485,0.23424 -5.47562,1.27747 -0.334624,0.67898 -1.971408,7.11192 -1.971408,7.74807 0,0.24689 -0.115558,0.56454 -0.257078,0.70596 -0.274947,0.27495 -1.291522,0.35095 -1.528212,0.11439 z m 6.306261,-12.31197 c 3.010337,-1.60449 5.006357,-4.81271 3.940757,-6.33407 -0.66202,-0.94514 -2.702772,-1.06725 -4.224631,-0.25281 -0.416912,0.22313 -0.416567,0.23067 0.0271,0.64409 0.544529,0.50732 0.544851,0.34727 -0.0033,1.96159 -0.89712,2.64038 -1.421671,4.6529 -1.212722,4.6529 0.117035,0 0.779975,-0.30225 1.473099,-0.6717 z m 49.895377,8.44982 c -0.58313,-0.2084 -0.85694,-0.77666 -0.85694,-1.77835 0,-1.36648 0.73423,-2.7325 2.68576,-4.99676 1.10818,-1.28575 1.72373,-2.20637 1.92714,-2.88221 0.31738,-1.05464 0.22364,-1.50869 -0.16457,-0.79699 -0.12801,0.2347 -0.63832,0.83644 -1.13406,1.33721 -0.73111,0.73859 -1.0482,0.9105 -1.67931,0.9105 -0.51165,0 -0.93649,-0.15847 -1.24091,-0.46288 -0.45474,-0.45474 -0.46892,-0.45565 -0.80338,-0.0519 -1.09626,1.32384 -2.5937,1.76754 -3.3066,0.97977 -0.50056,-0.55307 -0.44382,-1.74522 0.19359,-4.07072 0.30131,-1.09931 0.51627,-2.15978 0.47763,-2.35659 -0.12375,-0.63063 -1.90136,1.98253 -3.38242,4.97216 -1.42233,2.87112 -1.7809,3.24897 -2.44908,2.58079 -0.33548,-0.33548 -0.38924,-0.33016 -0.82942,0.0822 -0.4953,0.46396 -1.45897,0.89788 -1.994,0.89788 -0.17444,0 -0.57124,-0.25409 -0.88181,-0.56463 -0.54887,-0.54887 -0.57399,-0.55331 -0.90076,-0.15883 -1.60336,1.93568 -3.65682,1.77382 -3.65682,-0.28825 0,-0.38623 -0.0723,-0.70111 -0.16067,-0.69983 -0.0883,9.5e-4 -0.51694,0.57797 -0.95233,1.28145 -1.23435,1.99435 -2.70925,2.65317 -3.75027,1.67518 l -0.49907,-0.46883 -0.80019,0.76486 c -1.55611,1.48741 -2.85229,1.68792 -3.78044,0.58483 -0.30506,-0.36253 -0.55529,-0.77227 -0.55605,-0.91051 -7.5e-4,-0.13827 -0.39602,0.20909 -0.87839,0.77185 -1.46834,1.71312 -2.76536,2.09963 -3.74804,1.11695 l -0.53779,-0.53784 -0.54916,0.65265 c -0.62223,0.73945 -1.5518,1.27994 -2.20139,1.27994 -0.60309,0 -1.29604,-0.74453 -1.29604,-1.39254 0,-0.73946 -0.2587,-0.66993 -0.72436,0.19472 -1.50323,2.79138 -3.98888,2.84139 -3.98888,0.0802 0,-2.06686 1.49917,-6.95345 2.21862,-7.23172 0.75984,-0.2939 1.13464,0.24456 0.85245,1.2246 -1.35863,4.71822 -1.57905,5.89107 -1.15627,6.15237 0.41899,0.25895 2.32875,-3.1074 3.54811,-6.25422 0.69065,-1.78237 1.14845,-2.30632 1.82703,-2.09094 0.54251,0.17216 0.53327,0.27991 -0.284,3.31882 -0.69158,2.57148 -0.85167,3.66599 -0.59418,4.06199 0.17367,0.26707 0.27171,0.25138 0.66995,-0.10717 1.33294,-1.19995 2.92769,-4.69195 2.67282,-5.85247 -0.0979,-0.44577 0.0285,-0.80528 0.52256,-1.4875 0.67904,-0.93737 1.26043,-1.1323 1.72122,-0.57706 0.21837,0.26312 0.12337,0.80619 -0.51539,2.94576 -0.93313,3.12558 -1.1176,4.1229 -0.7991,4.31975 0.40326,0.24923 1.07669,-0.27979 2.03804,-1.60094 0.84109,-1.15594 0.95419,-1.46204 1.19719,-3.24024 0.72743,-5.32304 3.385,-11.95219 5.17594,-12.91112 0.75196,-0.40265 0.79713,-0.40368 1.36572,-0.031 0.57015,0.37359 0.5848,0.43181 0.48113,1.91608 -0.17184,2.46039 -2.61296,8.22326 -4.80045,11.33261 -0.577,0.82017 -0.7163,1.22291 -0.7163,2.0713 0,1.4279 0.14965,1.73094 0.85468,1.73094 0.40521,0 0.85995,-0.26539 1.42788,-0.8333 0.97227,-0.97225 1.21456,-1.41584 1.66564,-3.04918 0.3624,-1.31228 1.75686,-3.56803 2.63055,-4.25527 0.84242,-0.66266 2.15003,-0.99765 2.6574,-0.68077 0.48424,0.30242 0.39707,0.4686 1.1617,-2.21473 0.79008,-2.77265 1.94718,-6.05771 2.35053,-6.6733 0.48854,-0.74559 1.47074,-0.63599 1.56448,0.17456 0.0363,0.3141 -0.77058,3.10993 -1.79314,6.21291 -1.54123,4.67688 -1.8783,5.94408 -1.97083,7.40925 -0.10417,1.6488 -0.0835,1.76744 0.30697,1.76744 0.42945,0 1.25424,-0.76379 1.85073,-1.7139 0.58576,-0.93302 1.46385,-3.63612 1.32415,-4.07626 -0.18262,-0.57538 0.71354,-2.11888 1.31835,-2.27067 1.16385,-0.29213 1.19216,0.3401 0.16969,3.79219 -0.77128,2.60407 -0.85221,3.41183 -0.35804,3.5746 0.3002,0.0988 1.34025,-0.93233 2.10903,-2.09104 0.2736,-0.41241 0.78403,-1.74593 1.13429,-2.96335 0.87499,-3.04117 1.54382,-3.96029 2.31832,-3.1858 0.28716,0.28716 0.29619,0.43399 0.0616,1.00024 -0.41899,1.0115 -0.15719,0.9659 0.59691,-0.10406 1.25963,-1.78702 2.81132,-2.29035 3.4634,-1.12348 0.30449,0.54489 0.2784,0.78043 -0.36816,3.32813 -0.78084,3.07669 -0.82581,3.47672 -0.39114,3.47672 0.49472,0 2.00579,-1.93615 2.16186,-2.77008 0.23172,-1.2378 1.12386,-2.91058 2.17711,-4.08204 1.27643,-1.4197 2.01356,-1.79546 3.24893,-1.65623 0.66361,0.0751 1.05961,0.0152 1.26523,-0.1904 0.39657,-0.39658 1.10754,-0.38137 1.26425,0.0271 0.0687,0.17944 0.0153,0.73378 -0.11899,1.23186 -0.65081,2.41438 -1.51834,5.85337 -1.51885,6.02102 -3.1e-4,0.10338 0.43782,-0.21614 0.97365,-0.71002 1.04261,-0.96106 1.66132,-1.05682 1.77286,-0.27434 0.0526,0.37028 -0.33995,0.87525 -1.66448,2.14018 -1.7136,1.63645 -1.73994,1.67776 -2.2846,3.58368 -1.28212,4.48651 -2.69306,6.34153 -4.36818,5.74287 z m 1.81297,-3.14091 c 0.41685,-0.86665 0.75788,-1.74926 0.75788,-1.96134 0,-0.37065 -0.0163,-0.37073 -0.42371,-0.002 -0.55814,0.50515 -1.50443,2.42085 -1.50443,3.04572 0,0.88954 0.39967,0.51998 1.17026,-1.08217 z m -22.41671,-3.26759 c 0.96678,-1.17286 2.71061,-4.64891 2.54662,-5.07627 -0.59502,-1.55061 -3.31964,2.05909 -3.53753,4.68665 -0.11486,1.38397 0.10117,1.46894 0.99091,0.38962 z m 22.92893,-4.64935 c 0.35605,-0.44879 1.13965,-1.77439 1.74134,-2.94575 l 1.09401,-2.1298 h -0.57761 c -0.88193,0 -2.6914,1.9325 -3.26732,3.48941 -0.45276,1.224 -0.58829,2.30822 -0.32183,2.5747 0.21076,0.21074 0.62244,-0.0948 1.33141,-0.98856 z m -27.92784,-1.00249 c 1.65701,-3.29038 3.18444,-7.71507 2.66327,-7.71507 -0.59855,0 -1.921,2.90628 -2.99555,6.58309 -0.35222,1.20518 -0.70274,2.35379 -0.77896,2.55245 -0.0951,0.24726 -0.0579,0.31129 0.1174,0.20299 0.14079,-0.0873 0.58805,-0.81757 0.99388,-1.62346 z m 68.61583,4.55003 c -0.55897,-0.63659 -0.6371,-1.29575 -0.2936,-2.47741 0.40301,-1.38624 1.15081,-2.52777 2.74537,-4.19086 0.93591,-0.9761 1.29426,-1.54383 1.56728,-2.48295 0.19464,-0.66963 0.31293,-1.25852 0.26282,-1.30863 -0.0502,-0.0502 -0.32417,0.26724 -0.60898,0.70525 -1.04472,1.60666 -2.7415,2.22857 -3.63703,1.33305 l -0.44119,-0.44119 -0.43467,0.55257 c -0.53077,0.67479 -1.47779,1.18677 -2.19506,1.18677 -0.6107,0 -1.20112,-0.70793 -1.20112,-1.44022 0,-0.62644 -0.29656,-0.62647 -0.58197,-7e-5 -0.6581,1.44442 -2.22413,2.62188 -3.17099,2.38426 -1.21898,-0.30595 -1.31574,-2.18293 -0.29164,-5.6572 0.85777,-2.90985 1.14962,-3.47353 1.7539,-3.38753 0.69021,0.0983 0.68294,0.70714 -0.0383,3.20646 -0.63731,2.20848 -0.87792,3.68695 -0.63894,3.92593 0.42025,0.42025 3.17398,-4.27299 3.86977,-6.59528 0.27421,-0.91529 0.98189,-1.52014 1.53169,-1.30916 0.44285,0.16994 0.4632,-0.0359 -0.29173,2.95058 -0.71158,2.81482 -0.82334,4.20833 -0.33748,4.20833 0.59352,0 1.79944,-1.72536 2.25557,-3.22705 0.66826,-2.20014 2.00291,-4.0173 3.52148,-4.79473 1.09247,-0.55926 1.30691,-0.60222 1.89648,-0.37966 0.58701,0.22157 0.70044,0.19993 0.97009,-0.18506 0.20464,-0.29214 0.49285,-0.41424 0.8738,-0.37014 0.75521,0.0874 0.73067,0.3788 -0.36578,4.34331 -0.48772,1.76348 -0.88682,3.30298 -0.88682,3.4211 0,0.11813 0.57847,-0.35766 1.28546,-1.05728 0.8934,-0.8841 1.28612,-1.43737 1.28774,-1.8143 0.006,-1.44201 1.0714,-3.8019 2.24277,-4.96863 1.00011,-0.99613 1.82378,-1.33916 2.78331,-1.15915 2.2866,0.42896 1.00151,4.06002 -2.0038,5.66186 -1.21316,0.64657 -1.3017,0.743 -1.17141,1.27562 0.40409,1.65213 2.04922,1.0946 4.53876,-1.53819 0.62876,-0.6649 1.24049,-1.14874 1.35947,-1.07521 0.11897,0.0734 0.17897,0.45374 0.13337,0.8449 -0.0641,0.55021 0.004,0.73427 0.30701,0.8132 0.21454,0.0563 0.36318,0.22852 0.33037,0.38313 -0.0937,0.44105 0.93088,0.48161 1.70019,0.0673 1.28995,-0.69468 1.12268,-1.62425 -0.36437,-2.02467 -1.79729,-0.48395 -2.43898,-1.61499 -1.80917,-3.18899 0.66108,-1.6522 3.29831,-3.33938 4.53221,-2.89951 0.83799,0.29874 1.12213,0.89756 0.60725,1.2799 -0.22872,0.16985 -0.64942,0.30879 -0.93489,0.30879 -1.19717,0 -3.06598,1.62313 -2.64781,2.29975 0.0812,0.13158 0.6987,0.44525 1.37203,0.69718 1.88616,0.70569 2.50459,1.80274 1.7887,3.17308 -0.72543,1.38858 -2.40632,2.39952 -3.98972,2.39952 -1.15255,0 -1.70669,-0.31547 -1.70669,-0.97159 0,-0.29043 -0.0595,-0.52808 -0.13226,-0.52808 -0.0728,0 -0.51195,0.37961 -0.9759,0.84356 -1.74043,1.74043 -4.0413,2.25775 -5.21281,1.17201 l -0.59912,-0.55524 -1.67611,1.68 c -1.66895,1.6728 -1.67897,1.68967 -2.3414,3.9295 -1.1069,3.74283 -2.21642,5.35595 -3.68391,5.35595 -0.28761,0 -0.67105,-0.16869 -0.85214,-0.37492 z m 1.95331,-2.25465 c 0.24378,-0.50363 0.58197,-1.37659 0.75148,-1.93991 0.27474,-0.91281 0.27298,-0.99498 -0.0159,-0.7552 -0.55774,0.46286 -1.56499,2.40505 -1.5671,3.02161 -0.002,0.85225 0.3228,0.72435 0.83152,-0.3265 z m 0.73759,-8.56723 c 0.674,-0.90334 2.41299,-3.98426 2.59821,-4.60323 0.18738,-0.626 -0.35986,-0.64784 -1.33504,-0.0533 -1.35506,0.82619 -3.15911,4.41444 -2.75231,5.47448 0.17109,0.44593 0.80655,0.0968 1.48914,-0.81799 z m 8.98347,-4.37489 c 1.22919,-0.85184 1.85809,-2.21005 1.02337,-2.21005 -0.46904,0 -1.41308,1.07806 -1.84633,2.10846 -0.34687,0.82495 -0.23993,0.83815 0.82296,0.10139 z m -40.42544,14.16384 c -0.18517,-0.18515 -0.33664,-0.45164 -0.33664,-0.59215 0,-0.68687 2.47303,-9.46927 3.58432,-12.72883 0.69298,-2.0326 1.21772,-3.69561 1.16614,-3.69561 -0.67241,0 -3.25082,2.55197 -3.25082,3.21751 0,0.51573 -0.52343,0.89946 -1.11297,0.81591 -0.38415,-0.0545 -0.50888,-0.22691 -0.5617,-0.77657 -0.14454,-1.50381 2.02248,-3.95683 4.67594,-5.29308 4.22944,-2.12993 7.92539,-1.00859 7.92471,2.40428 -2.5e-4,1.1485 -1.05405,3.21192 -2.21907,4.34518 -0.54513,0.53023 -0.99185,1.02431 -0.99275,1.09797 -8.2e-4,0.0735 0.27972,0.19015 0.62356,0.25893 0.87004,0.17401 2.0848,1.30123 2.38608,2.21413 0.84284,2.5538 -1.48279,6.36484 -4.91507,8.05455 -1.62817,0.80154 -3.34221,0.94715 -3.74529,0.31817 -0.34949,-0.54546 0.0757,-1.09834 0.95921,-1.24703 1.25253,-0.2108 2.70644,-0.98712 3.84732,-2.05427 2.43553,-2.27816 2.81021,-4.92511 0.79648,-5.62712 -0.96833,-0.33755 -1.60626,-0.28754 -3.49466,0.27399 l -1.69572,0.50424 -0.37628,1.26323 c -0.20695,0.69476 -0.67966,2.54573 -1.0505,4.11328 -0.79837,3.3748 -1.28358,4.06202 -2.21229,3.13329 z m 6.16761,-11.71316 c 3.2121,-1.69768 5.00283,-4.90678 3.42889,-6.14483 -0.67885,-0.53398 -1.71704,-0.57048 -3.2529,-0.11451 -1.16767,0.34677 -1.39657,0.61665 -0.6816,0.8036 0.23566,0.0616 0.42848,0.28529 0.42848,0.49701 0,0.38221 -1.12596,4.24833 -1.50623,5.17178 -0.27158,0.65951 9.4e-4,0.62268 1.58336,-0.21319 z m 7.15338,7.7479 c -0.20621,-0.11998 -0.37441,-0.3823 -0.37381,-0.58264 0.002,-0.70057 1.89885,-7.99897 2.16076,-8.31457 0.14541,-0.17519 0.46562,-0.28976 0.7116,-0.25463 0.36795,0.0525 0.44288,0.20632 0.42279,0.86728 -0.0137,0.44187 0.0255,0.80339 0.0864,0.80339 0.0611,0 0.4518,-0.39817 0.86835,-0.88481 0.80129,-0.93612 1.93517,-1.55075 2.47716,-1.34273 0.94167,0.36134 0.40492,1.95975 -0.65807,1.95975 -1.1506,0 -2.80693,2.42904 -3.83478,5.62375 -0.51378,1.59692 -0.96424,2.37194 -1.36593,2.35009 -0.0656,-0.002 -0.28844,-0.10483 -0.49464,-0.22488 z m -58.29046,-0.98262 c -0.3021,-0.30207 -0.12287,-1.53875 0.30118,-2.07777 0.83601,-1.06283 1.96979,-0.50743 1.58106,0.77451 -0.30509,1.006 -1.41265,1.77286 -1.88224,1.30326 z m 19.70984,-3.42778 c -0.30209,-0.30209 -0.12288,-1.53876 0.30121,-2.07777 0.82168,-1.04462 1.83464,-0.50133 1.46544,0.78599 -0.31575,1.10098 -1.26406,1.79438 -1.76665,1.29178 z"
       id="path2" /></g><g
     id="layer5"
     style="display:inline"
     transform="translate(-11.739738,-41.389601)"><path
       style="font-size:400px;line-height:1.25;font-family:'MS Gothic';-inkscape-font-specification:'MS Gothic';letter-spacing:0px;word-spacing:0px;fill:#ffffff"
       d="m 171.06445,632.29492 q -37.5,0 -37.5,-42.1875 v -115.625 q 0,-20.3125 -20.3125,-20.3125 v -21.875 q 20.3125,0 20.3125,-20.3125 v -115.625 q 0,-42.1875 37.5,-42.1875 h 25 v 18.75 h -12.5 q -18.75,0 -18.75,18.75 v 109.375 q 0,31.25 -14.0625,42.1875 14.0625,10.9375 14.0625,42.1875 v 109.375 q 0,18.75 18.75,18.75 h 12.5 v 18.75 z"
       id="flowRoot4683"
       transform="matrix(0.26458333,0,0,0.26458333,9.9589552,30.682542)"
       aria-label="{" /></g><g
   id="layer6"
   style="display:inline"
   transform="translate(-11.739738,-41.389601)"><path
     style="font-size:400px;line-height:1.25;font-family:'MS Gothic';-inkscape-font-specification:'MS Gothic';letter-spacing:0px;word-spacing:0px;fill:#ffffff;stroke-width:0.264583"
     d="m 149.80947,106.56485 q -3.7207,-2.89388 -3.7207,-11.162109 V 66.463939 q 0,-4.960937 -4.96094,-4.960937 h -3.30729 v -4.960938 h 6.61458 q 9.92188,0 9.92188,11.162109 v 30.592448 q 0,5.374349 5.37435,5.374349 v 5.78776 q -5.37435,0 -5.37435,5.37435 v 30.59245 q 0,11.16211 -9.92188,11.16211 h -6.61458 v -4.96094 h 3.30729 q 4.96094,0 4.96094,-4.96094 v -28.9388 q 0,-8.26823 3.7207,-11.16211 z"
     id="flowRoot4697"
     aria-label="}" /></g></svg>
